<?xml version="1.0" standalone="no"?>
<!DOCTYPE svg PUBLIC "-//W3C//DTD SVG 20010904//EN"
 "http://www.w3.org/TR/2001/REC-SVG-20010904/DTD/svg10.dtd">
<svg version="1.0" xmlns="http://www.w3.org/2000/svg"
 width="180.000000pt" height="180.000000pt" viewBox="0 0 180.000000 180.000000"
 preserveAspectRatio="xMidYMid meet">

<g transform="translate(0.000000,180.000000) scale(0.100000,-0.100000)"
fill="#000000" stroke="none">
<path d="M422 948 l3 -203 433 -3 432 -2 0 205 0 205 -435 0 -435 0 2 -202z
m178 27 l0 -95 35 0 35 0 0 95 c0 88 1 95 20 95 16 0 20 -7 20 -34 0 -18 3
-61 6 -95 l7 -61 33 0 34 0 0 95 c0 94 0 95 24 95 25 0 25 0 28 -120 l3 -120
-152 0 -153 0 0 120 0 120 30 0 30 0 0 -95z m570 20 l0 -75 -125 0 c-118 0
-125 -1 -125 -20 0 -19 7 -20 125 -20 l125 0 0 -30 0 -31 -147 3 -148 3 -3
123 -3 122 151 0 150 0 0 -75z"/>
<path d="M927 1014 c-4 -4 -7 -16 -7 -26 0 -16 10 -18 101 -18 98 0 100 0 97
23 -3 21 -8 22 -93 25 -50 1 -94 0 -98 -4z"/>
<path d="M974 683 c3 -21 6 -47 6 -58 1 -19 1 -19 11 -2 10 18 11 18 24 0 18
-24 30 -11 14 15 -10 17 -10 23 0 36 8 10 9 16 3 16 -6 0 -14 -4 -17 -10 -12
-19 -22 -10 -17 15 3 19 0 25 -13 25 -15 0 -17 -6 -11 -37z"/>
<path d="M1120 665 c0 -30 5 -55 10 -55 6 0 10 25 10 55 0 30 -4 55 -10 55 -5
0 -10 -25 -10 -55z"/>
<path d="M1170 665 c0 -30 5 -55 10 -55 6 0 10 25 10 55 0 30 -4 55 -10 55 -5
0 -10 -25 -10 -55z"/>
<path d="M627 697 c-7 -19 6 -80 19 -84 8 -3 11 44 5 90 -2 12 -19 8 -24 -6z"/>
<path d="M433 674 c-7 -20 1 -59 12 -57 6 1 11 14 13 28 5 35 22 31 22 -5 0
-16 5 -30 11 -30 6 0 9 16 7 38 -3 33 -6 37 -31 38 -16 1 -31 -5 -34 -12z"/>
<path d="M542 678 c-25 -25 -6 -68 30 -68 26 0 22 18 -4 23 -20 4 -19 4 5 6
15 0 27 7 27 14 0 16 -20 37 -35 37 -6 0 -16 -5 -23 -12z m35 -14 c-3 -3 -12
-4 -19 -1 -8 3 -5 6 6 6 11 1 17 -2 13 -5z"/>
<path d="M690 675 c0 -29 11 -65 20 -65 5 0 12 10 16 22 l7 23 8 -23 c12 -32
26 -27 34 14 7 40 -2 61 -12 25 l-6 -23 -13 23 -14 24 -6 -24 -7 -23 -13 23
c-12 22 -13 22 -14 4z"/>
<path d="M821 676 c-21 -25 -10 -61 18 -61 31 0 50 28 35 53 -15 23 -38 26
-53 8z m39 -26 c0 -11 -7 -20 -15 -20 -8 0 -15 9 -15 20 0 11 7 20 15 20 8 0
15 -9 15 -20z"/>
<path d="M910 650 c0 -22 5 -40 10 -40 6 0 10 14 10 30 0 17 5 30 10 30 6 0
10 5 10 10 0 6 -9 10 -20 10 -17 0 -20 -7 -20 -40z"/>
<path d="M1232 678 c-16 -16 -15 -43 3 -58 17 -14 47 -10 53 8 3 9 -3 11 -23
6 -23 -6 -26 -4 -23 12 3 13 11 18 27 16 20 -2 22 0 11 13 -15 18 -32 19 -48
3z"/>
</g>
</svg>
