<svg id="Layer_1" data-name="Layer 1" xmlns="http://www.w3.org/2000/svg" xmlns:xlink="http://www.w3.org/1999/xlink" viewBox="0 0 517.79 494.74"><defs><style>.cls-1{fill:url(#linear-gradient);}.cls-2{fill:url(#linear-gradient-2);}.cls-3{fill:url(#linear-gradient-3);}.cls-4{fill:url(#linear-gradient-4);}.cls-5{fill:url(#linear-gradient-5);}.cls-6{fill:url(#linear-gradient-6);}.cls-7{fill:url(#linear-gradient-7);}.cls-8{fill:url(#linear-gradient-8);}.cls-9{fill:url(#linear-gradient-9);}.cls-10{fill:url(#linear-gradient-10);}.cls-11{fill:url(#linear-gradient-11);}.cls-12{fill:url(#linear-gradient-12);}.cls-13{fill:url(#linear-gradient-13);}.cls-14{fill:url(#linear-gradient-14);}.cls-15{fill:url(#linear-gradient-15);}.cls-16{fill:url(#linear-gradient-16);}.cls-17{fill:url(#linear-gradient-17);}.cls-18{fill:url(#linear-gradient-18);}.cls-19{fill:url(#linear-gradient-19);}.cls-20{fill:url(#linear-gradient-20);}.cls-21{fill:url(#linear-gradient-21);}.cls-22{fill:url(#linear-gradient-22);}.cls-23{fill:url(#linear-gradient-23);}.cls-24{fill:url(#linear-gradient-24);}.cls-25{fill:url(#linear-gradient-25);}.cls-26{fill:url(#linear-gradient-26);}.cls-27{fill:url(#linear-gradient-27);}.cls-28{fill:url(#linear-gradient-28);}.cls-29{fill:url(#linear-gradient-29);}.cls-30{fill:url(#linear-gradient-30);}.cls-31{fill:url(#linear-gradient-31);}.cls-32{fill:url(#linear-gradient-32);}.cls-33{fill:url(#linear-gradient-33);}.cls-34{fill:url(#linear-gradient-34);}.cls-35{fill:url(#linear-gradient-35);}.cls-36{fill:url(#linear-gradient-36);}.cls-37{fill:url(#linear-gradient-37);}.cls-38{fill:url(#linear-gradient-38);}.cls-39{fill:#d6b526;}</style><linearGradient id="linear-gradient" x1="167.1" y1="173.27" x2="341.13" y2="258.42" gradientUnits="userSpaceOnUse"><stop offset="0" stop-color="#7a3f06" stop-opacity="0.8"/><stop offset="0.26" stop-color="#b4a020"/><stop offset="0.41" stop-color="#f6ff73"/><stop offset="0.63" stop-color="#bfa002"/><stop offset="0.99" stop-color="#a57433"/></linearGradient><linearGradient id="linear-gradient-2" x1="114.38" y1="326.75" x2="126.27" y2="306.16" gradientUnits="userSpaceOnUse"><stop offset="0" stop-color="#7a3f06"/><stop offset="0.26" stop-color="#b4a020"/><stop offset="0.41" stop-color="#f6ff73"/><stop offset="0.63" stop-color="#bfa002"/><stop offset="0.81" stop-color="#a57433"/><stop offset="1" stop-color="#7b5014"/></linearGradient><linearGradient id="linear-gradient-3" x1="130.25" y1="324.77" x2="142.83" y2="302.97" xlink:href="#linear-gradient-2"/><linearGradient id="linear-gradient-4" x1="149.33" y1="326.75" x2="161.22" y2="306.16" xlink:href="#linear-gradient-2"/><linearGradient id="linear-gradient-5" x1="162.15" y1="322.37" x2="172.2" y2="304.96" xlink:href="#linear-gradient-2"/><linearGradient id="linear-gradient-6" x1="174.79" y1="324.19" x2="186.31" y2="304.23" xlink:href="#linear-gradient-2"/><linearGradient id="linear-gradient-7" x1="195.65" y1="326.75" x2="207.54" y2="306.16" xlink:href="#linear-gradient-2"/><linearGradient id="linear-gradient-8" x1="215.7" y1="322.91" x2="227.83" y2="301.9" xlink:href="#linear-gradient-2"/><linearGradient id="linear-gradient-9" x1="235.59" y1="322.13" x2="247.34" y2="301.77" xlink:href="#linear-gradient-2"/><linearGradient id="linear-gradient-10" x1="256.58" y1="324.89" x2="268.13" y2="304.88" xlink:href="#linear-gradient-2"/><linearGradient id="linear-gradient-11" x1="275.81" y1="324.85" x2="288.72" y2="302.48" xlink:href="#linear-gradient-2"/><linearGradient id="linear-gradient-12" x1="292.45" y1="322.37" x2="302.5" y2="304.96" xlink:href="#linear-gradient-2"/><linearGradient id="linear-gradient-13" x1="303.82" y1="321.15" x2="315.29" y2="301.29" xlink:href="#linear-gradient-2"/><linearGradient id="linear-gradient-14" x1="323.75" y1="322.13" x2="335.51" y2="301.77" xlink:href="#linear-gradient-2"/><linearGradient id="linear-gradient-15" x1="344.75" y1="324.89" x2="356.3" y2="304.88" xlink:href="#linear-gradient-2"/><linearGradient id="linear-gradient-16" x1="362.88" y1="324.22" x2="374.98" y2="303.25" xlink:href="#linear-gradient-2"/><linearGradient id="linear-gradient-17" x1="389.53" y1="324.74" x2="400.07" y2="306.49" xlink:href="#linear-gradient-2"/><linearGradient id="linear-gradient-18" x1="68.11" y1="360.16" x2="78.16" y2="342.75" xlink:href="#linear-gradient-2"/><linearGradient id="linear-gradient-19" x1="81.89" y1="362.64" x2="94.8" y2="340.27" xlink:href="#linear-gradient-2"/><linearGradient id="linear-gradient-20" x1="100.43" y1="358.93" x2="111.89" y2="339.08" xlink:href="#linear-gradient-2"/><linearGradient id="linear-gradient-21" x1="119.24" y1="362" x2="131.34" y2="341.04" xlink:href="#linear-gradient-2"/><linearGradient id="linear-gradient-22" x1="137.67" y1="362.68" x2="149.22" y2="342.67" xlink:href="#linear-gradient-2"/><linearGradient id="linear-gradient-23" x1="152.59" y1="360.16" x2="162.64" y2="342.75" xlink:href="#linear-gradient-2"/><linearGradient id="linear-gradient-24" x1="167.83" y1="360.56" x2="178.39" y2="342.28" xlink:href="#linear-gradient-2"/><linearGradient id="linear-gradient-25" x1="187.98" y1="362.68" x2="199.54" y2="342.67" xlink:href="#linear-gradient-2"/><linearGradient id="linear-gradient-26" x1="212.06" y1="361.8" x2="223.31" y2="342.3" xlink:href="#linear-gradient-2"/><linearGradient id="linear-gradient-27" x1="232.41" y1="362" x2="244.51" y2="341.04" xlink:href="#linear-gradient-2"/><linearGradient id="linear-gradient-28" x1="252.29" y1="360.52" x2="262.78" y2="342.35" xlink:href="#linear-gradient-2"/><linearGradient id="linear-gradient-29" x1="269.38" y1="360.56" x2="279.94" y2="342.28" xlink:href="#linear-gradient-2"/><linearGradient id="linear-gradient-30" x1="289.53" y1="362.68" x2="301.09" y2="342.67" xlink:href="#linear-gradient-2"/><linearGradient id="linear-gradient-31" x1="309.18" y1="364.54" x2="321.06" y2="343.95" xlink:href="#linear-gradient-2"/><linearGradient id="linear-gradient-32" x1="321.85" y1="358.93" x2="333.31" y2="339.08" xlink:href="#linear-gradient-2"/><linearGradient id="linear-gradient-33" x1="337.46" y1="360.16" x2="347.51" y2="342.75" xlink:href="#linear-gradient-2"/><linearGradient id="linear-gradient-34" x1="352.7" y1="360.56" x2="363.25" y2="342.28" xlink:href="#linear-gradient-2"/><linearGradient id="linear-gradient-35" x1="372.77" y1="362.64" x2="385.68" y2="340.27" xlink:href="#linear-gradient-2"/><linearGradient id="linear-gradient-36" x1="398.75" y1="361.91" x2="408.8" y2="344.5" xlink:href="#linear-gradient-2"/><linearGradient id="linear-gradient-37" x1="415.06" y1="361.91" x2="425.11" y2="344.5" xlink:href="#linear-gradient-2"/><linearGradient id="linear-gradient-38" x1="433.03" y1="360.52" x2="443.52" y2="342.35" xlink:href="#linear-gradient-2"/></defs><title>Azaiba Furniture Logo</title><path class="cls-1" d="M354.15,270.1l-13.58-27.39-32.75-66.08-29.38-59.25c-7.9-15.94-31-16-38.92,0L221.77,153c-5.11,10.25,2.44,22.23,14,22.3l30.88.18a15.76,15.76,0,0,1,14.35,9.31H222.44c-9.63,0-18.43,7.55-22.66,19.52h88.39l3.36,9.27H209.14c-9.62,0-18.42,7.55-22.66,19.52h107.7a15.74,15.74,0,0,1-14.51,9.43l-92.62-.05a15.79,15.79,0,0,0-14.16,8.68l-9.25,18.56C158.53,280,166.12,292,177.76,292l142.54.32,19.65,0C351.61,292.4,359.26,280.4,354.15,270.1Z"/><path class="cls-2" d="M115.93,303.4h5.56l6.44,20.53H123l-2.68-10.4c-.57-2-1.12-4.47-1.67-6.62h-.13c-.49,2.17-1,4.57-1.61,6.62l-2.7,10.4h-4.74Zm-2.19,12h9.87V319h-9.87Z"/><path class="cls-3" d="M128.79,321.13l9.08-13.83h-8.22v-3.9h13.94v2.8L134.51,320h9.15v3.89H128.79Z"/><path class="cls-4" d="M150.88,303.4h5.56l6.44,20.53H158l-2.68-10.4c-.57-2-1.12-4.47-1.67-6.62h-.13c-.49,2.17-1,4.57-1.61,6.62l-2.7,10.4h-4.74Zm-2.19,12h9.87V319h-9.87Z"/><path class="cls-5" d="M164.86,303.4h4.64v20.53h-4.64Z"/><path class="cls-6" d="M174.33,303.4h7c4.26,0,7.57,1.17,7.57,5.09a4.75,4.75,0,0,1-2.7,4.44v.12a4.68,4.68,0,0,1,3.71,4.83c0,4.18-3.53,6.05-8,6.05h-7.61Zm6.81,8.22c2.26,0,3.25-.95,3.25-2.44s-1-2.2-3.21-2.2H179v4.64Zm.43,8.73c2.53,0,3.83-.9,3.83-2.77s-1.28-2.53-3.83-2.53H179v5.3Z"/><path class="cls-7" d="M197.2,303.4h5.56l6.44,20.53h-4.91l-2.68-10.4c-.57-2-1.12-4.47-1.67-6.62h-.13c-.49,2.17-1,4.57-1.61,6.62l-2.7,10.4h-4.74Zm-2.19,12h9.87V319H195Z"/><path class="cls-8" d="M217.47,303.4h13v3.9h-8.32v4.75h7.1V316h-7.1v8h-4.64Z"/><path class="cls-9" d="M233.86,314.42v-11h4.64v11.49c0,4,1.26,5.41,3.56,5.41s3.64-1.39,3.64-5.41V303.4h4.47v11c0,6.89-2.8,9.89-8.11,9.89S233.86,321.31,233.86,314.42Z"/><path class="cls-10" d="M254.91,303.4h7.39c4.36,0,7.93,1.51,7.93,6.4,0,4.71-3.57,6.74-7.93,6.74h-2.75v7.39h-4.64Zm7,9.46c2.44,0,3.75-1.05,3.75-3.06s-1.31-2.71-3.75-2.71h-2.38v5.77Zm-.48,2.46,3.21-3,6.56,11.58H266Z"/><path class="cls-11" d="M274.21,303.4H279l5.35,10.21,2,4.51h.13c-.22-2.17-.59-5.05-.59-7.46V303.4h4.42v20.53h-4.76L280.2,313.7l-2-4.49H278c.22,2.27.6,5,.6,7.44v7.28h-4.43Z"/><path class="cls-12" d="M295.15,303.4h4.64v20.53h-4.64Z"/><path class="cls-13" d="M308.65,307.3H303v-3.9h15.94v3.9h-5.65v16.63h-4.64Z"/><path class="cls-14" d="M322,314.42v-11h4.64v11.49c0,4,1.27,5.41,3.57,5.41s3.63-1.39,3.63-5.41V303.4h4.48v11c0,6.89-2.8,9.89-8.11,9.89S322,321.31,322,314.42Z"/><path class="cls-15" d="M343.08,303.4h7.39c4.35,0,7.92,1.51,7.92,6.4,0,4.71-3.57,6.74-7.92,6.74h-2.75v7.39h-4.64Zm7,9.46c2.44,0,3.75-1.05,3.75-3.06s-1.31-2.71-3.75-2.71h-2.37v5.77Zm-.47,2.46,3.21-3,6.55,11.58h-5.19Z"/><path class="cls-16" d="M362.38,303.4h12.86v3.9H367v4.12h7v3.89h-7V320h8.54v3.89H362.38Z"/><path class="cls-17" d="M384.29,318.44c0-6.7,9.58-6.76,9.58-10.76,0-1-.45-1.59-1.4-1.59s-1.87.86-1.87,2.29c0,3.26,4.43,7.69,8.63,10.21a14.27,14.27,0,0,0,4.72,2l-1.11,3.74a18.14,18.14,0,0,1-6.39-2.78c-5.14-3.41-9.68-9-9.68-13.14a5.32,5.32,0,0,1,5.6-5.36c3.08,0,5,1.83,5,4.63,0,5.48-8.74,6.75-8.74,10.51,0,1.55,1.23,2.61,3.05,2.61a6.55,6.55,0,0,0,4.27-2.09,13.93,13.93,0,0,0,3.62-6.36h4.22a22.4,22.4,0,0,1-4.66,8.44,10.55,10.55,0,0,1-8,3.54C386.66,324.31,384.29,321.6,384.29,318.44Z"/><path class="cls-18" d="M70.82,341.19h4.64v20.53H70.82Z"/><path class="cls-19" d="M80.29,341.19h4.76l5.36,10.21,2,4.51h.12c-.22-2.17-.59-5.05-.59-7.47v-7.25h4.42v20.53H91.64l-5.36-10.24-2-4.48h-.13c.22,2.26.6,5,.6,7.43v7.29H80.29Z"/><path class="cls-20" d="M105.25,345.08H99.6v-3.89h15.94v3.89h-5.65v16.64h-4.64Z"/><path class="cls-21" d="M118.74,341.19H131.6v3.89h-8.22v4.12h7v3.9h-7v4.72h8.54v3.9H118.74Z"/><path class="cls-22" d="M136,341.19h7.39c4.35,0,7.92,1.51,7.92,6.39,0,4.72-3.57,6.75-7.92,6.75h-2.75v7.39H136Zm7,9.45c2.44,0,3.75-1,3.75-3.06s-1.31-2.71-3.75-2.71h-2.37v5.77Zm-.47,2.47,3.21-3,6.55,11.58h-5.19Z"/><path class="cls-23" d="M155.3,341.19h4.64v20.53H155.3Z"/><path class="cls-24" d="M163.81,351.36c0-6.7,3.78-10.55,9.32-10.55s9.32,3.87,9.32,10.55-3.79,10.73-9.32,10.73S163.81,358.07,163.81,351.36Zm13.89,0c0-4.11-1.77-6.54-4.57-6.54s-4.57,2.43-4.57,6.54,1.77,6.73,4.57,6.73S177.7,355.48,177.7,351.36Z"/><path class="cls-25" d="M186.31,341.19h7.4c4.35,0,7.92,1.51,7.92,6.39,0,4.72-3.57,6.75-7.92,6.75H191v7.39h-4.64Zm7,9.45c2.44,0,3.75-1,3.75-3.06s-1.31-2.71-3.75-2.71H191v5.77Zm-.47,2.47,3.21-3,6.55,11.58h-5.19Z"/><path class="cls-26" d="M211.91,341.19h5.81c6.27,0,10.31,3.12,10.31,10.17s-4,10.36-10.05,10.36h-6.07ZM217.43,358c3.49,0,5.84-1.71,5.84-6.62s-2.35-6.43-5.84-6.43h-.88V358Z"/><path class="cls-27" d="M231.91,341.19h12.86v3.89h-8.22v4.12h7v3.9h-7v4.72h8.53v3.9H231.91Z"/><path class="cls-28" d="M248.19,351.57c0-6.81,4.51-10.76,9.69-10.76a8.66,8.66,0,0,1,6.18,2.67l-2.45,3a5.15,5.15,0,0,0-3.62-1.63c-2.82,0-5,2.48-5,6.6s2,6.67,5,6.67a5.42,5.42,0,0,0,4-1.92l2.44,2.91a8.44,8.44,0,0,1-6.62,3C252.54,362.09,248.19,358.49,248.19,351.57Z"/><path class="cls-29" d="M265.35,351.36c0-6.7,3.79-10.55,9.33-10.55s9.32,3.87,9.32,10.55-3.79,10.73-9.32,10.73S265.35,358.07,265.35,351.36Zm13.89,0c0-4.11-1.76-6.54-4.56-6.54s-4.57,2.43-4.57,6.54,1.77,6.73,4.57,6.73S279.24,355.48,279.24,351.36Z"/><path class="cls-30" d="M287.86,341.19h7.4c4.35,0,7.92,1.51,7.92,6.39,0,4.72-3.57,6.75-7.92,6.75H292.5v7.39h-4.64Zm7,9.45c2.44,0,3.75-1,3.75-3.06s-1.31-2.71-3.75-2.71H292.5v5.77Zm-.47,2.47,3.21-3,6.55,11.58H299Z"/><path class="cls-31" d="M310.73,341.19h5.56l6.44,20.53h-4.91l-2.68-10.4c-.58-2.05-1.12-4.48-1.67-6.62h-.13c-.49,2.17-1,4.57-1.61,6.62l-2.7,10.4h-4.74Zm-2.19,12h9.87v3.61h-9.87Z"/><path class="cls-32" d="M326.67,345.08H321v-3.89H337v3.89h-5.65v16.64h-4.64Z"/><path class="cls-33" d="M340.16,341.19h4.65v20.53h-4.65Z"/><path class="cls-34" d="M348.67,351.36c0-6.7,3.79-10.55,9.32-10.55s9.33,3.87,9.33,10.55-3.79,10.73-9.33,10.73S348.67,358.07,348.67,351.36Zm13.89,0c0-4.11-1.77-6.54-4.57-6.54s-4.56,2.43-4.56,6.54,1.76,6.73,4.56,6.73S362.56,355.48,362.56,351.36Z"/><path class="cls-35" d="M371.18,341.19h4.76l5.35,10.21,2,4.51h.13c-.22-2.17-.6-5.05-.6-7.47v-7.25h4.43v20.53h-4.76l-5.35-10.24-2-4.48H375c.22,2.26.59,5,.59,7.43v7.29h-4.42Z"/><path class="cls-36" d="M398.42,341.19h4.64v16.63h8.1v3.9H398.42Z"/><path class="cls-37" d="M414.73,341.19h4.64v16.63h8.1v3.9H414.73Z"/><path class="cls-38" d="M428.93,351.57c0-6.81,4.51-10.76,9.69-10.76a8.66,8.66,0,0,1,6.18,2.67l-2.45,3a5.15,5.15,0,0,0-3.62-1.63c-2.82,0-5,2.48-5,6.6s2,6.67,5,6.67a5.4,5.4,0,0,0,4-1.92l2.45,2.91a8.47,8.47,0,0,1-6.63,3C433.28,362.09,428.93,358.49,428.93,351.57Z"/><path class="cls-39" d="M117.79,303.43h5.55L129.79,324h-4.91l-2.69-10.4c-.57-2.05-1.12-4.48-1.67-6.62h-.12c-.5,2.17-1.05,4.57-1.62,6.62L116.09,324h-4.75Zm-2.2,12h9.88v3.61h-9.88Z"/><path class="cls-39" d="M130.64,321.16l9.08-13.84h-8.21v-3.89h13.93v2.8l-9.07,13.83h9.15V324H130.64Z"/><path class="cls-39" d="M152.74,303.43h5.55L164.74,324h-4.91l-2.69-10.4c-.57-2.05-1.12-4.48-1.67-6.62h-.12c-.5,2.17-1,4.57-1.62,6.62L151,324h-4.75Zm-2.2,12h9.88v3.61h-9.88Z"/><path class="cls-39" d="M166.71,303.43h4.64V324h-4.64Z"/><path class="cls-39" d="M176.19,303.43h7c4.26,0,7.57,1.17,7.57,5.09a4.75,4.75,0,0,1-2.7,4.43v.13a4.67,4.67,0,0,1,3.72,4.83c0,4.17-3.54,6-8,6h-7.61Zm6.81,8.22c2.25,0,3.25-.95,3.25-2.44S185.2,307,183,307h-2.2v4.64Zm.42,8.72c2.53,0,3.84-.89,3.84-2.76s-1.29-2.53-3.84-2.53h-2.59v5.29Z"/><path class="cls-39" d="M199.06,303.43h5.55L211.06,324h-4.91l-2.69-10.4c-.57-2.05-1.12-4.48-1.67-6.62h-.12c-.5,2.17-1,4.57-1.62,6.62L197.36,324h-4.75Zm-2.2,12h9.88v3.61h-9.88Z"/><path class="cls-39" d="M219.33,303.43h12.95v3.89H224v4.76h7.1V316H224v8h-4.64Z"/><path class="cls-39" d="M235.71,314.44v-11h4.64v11.49c0,4,1.27,5.41,3.57,5.41s3.63-1.39,3.63-5.41V303.43H252v11c0,6.9-2.8,9.89-8.11,9.89S235.71,321.34,235.71,314.44Z"/><path class="cls-39" d="M256.77,303.43h7.39c4.35,0,7.92,1.51,7.92,6.39,0,4.72-3.57,6.75-7.92,6.75h-2.75V324h-4.64Zm7,9.45c2.44,0,3.75-1,3.75-3.06s-1.31-2.71-3.75-2.71h-2.37v5.77Zm-.47,2.47,3.21-3L273.07,324h-5.19Z"/><path class="cls-39" d="M276.07,303.43h4.75l5.36,10.21,2,4.51h.13c-.22-2.17-.6-5-.6-7.47v-7.25h4.42V324h-4.75l-5.36-10.24-2-4.48h-.12c.22,2.26.59,5,.59,7.43V324h-4.42Z"/><path class="cls-39" d="M297,303.43h4.64V324H297Z"/><path class="cls-39" d="M310.5,307.32h-5.65v-3.89h15.94v3.89h-5.65V324H310.5Z"/><path class="cls-39" d="M323.88,314.44v-11h4.64v11.49c0,4,1.27,5.41,3.56,5.41s3.64-1.39,3.64-5.41V303.43h4.47v11c0,6.9-2.8,9.89-8.11,9.89S323.88,321.34,323.88,314.44Z"/><path class="cls-39" d="M344.93,303.43h7.39c4.36,0,7.93,1.51,7.93,6.39,0,4.72-3.57,6.75-7.93,6.75h-2.75V324h-4.64Zm7,9.45c2.44,0,3.75-1,3.75-3.06s-1.31-2.71-3.75-2.71h-2.38v5.77Zm-.47,2.47,3.21-3L361.24,324H356Z"/><path class="cls-39" d="M364.23,303.43H377.1v3.89h-8.23v4.12h7v3.89h-7v4.73h8.54V324H364.23Z"/><path class="cls-39" d="M386.15,318.47c0-6.71,9.58-6.76,9.58-10.77,0-1-.45-1.59-1.41-1.59s-1.87.86-1.87,2.3c0,3.25,4.43,7.69,8.63,10.21a14.49,14.49,0,0,0,4.72,2l-1.1,3.73a18.07,18.07,0,0,1-6.39-2.78c-5.15-3.4-9.68-9-9.68-13.13a5.32,5.32,0,0,1,5.6-5.37c3.07,0,5,1.84,5,4.64,0,5.48-8.74,6.74-8.74,10.51,0,1.55,1.23,2.6,3,2.6a6.56,6.56,0,0,0,4.27-2.08,14.07,14.07,0,0,0,3.63-6.37h4.21a22.17,22.17,0,0,1-4.65,8.44,10.53,10.53,0,0,1-8,3.54C388.52,324.33,386.15,321.62,386.15,318.47Z"/><path class="cls-39" d="M72.67,341.21h4.64v20.53H72.67Z"/><path class="cls-39" d="M82.15,341.21H86.9l5.36,10.21,2,4.51h.13c-.22-2.17-.6-5-.6-7.46v-7.26h4.43v20.53H93.49l-5.36-10.23-2-4.49H86c.22,2.27.59,5,.59,7.44v7.28H82.15Z"/><path class="cls-39" d="M107.11,345.11h-5.65v-3.9H117.4v3.9h-5.65v16.63h-4.64Z"/><path class="cls-39" d="M120.6,341.21h12.86v3.9h-8.22v4.12h7v3.89h-7v4.73h8.53v3.89H120.6Z"/><path class="cls-39" d="M137.85,341.21h7.39c4.36,0,7.93,1.52,7.93,6.4,0,4.71-3.57,6.74-7.93,6.74h-2.75v7.39h-4.64Zm7,9.46c2.44,0,3.75-1,3.75-3.06s-1.31-2.71-3.75-2.71h-2.38v5.77Zm-.47,2.46,3.21-3,6.55,11.58H149Z"/><path class="cls-39" d="M157.15,341.21h4.64v20.53h-4.64Z"/><path class="cls-39" d="M165.66,351.39c0-6.71,3.79-10.55,9.32-10.55s9.33,3.87,9.33,10.55-3.79,10.73-9.33,10.73S165.66,358.1,165.66,351.39Zm13.89,0c0-4.12-1.77-6.55-4.57-6.55s-4.56,2.43-4.56,6.55,1.76,6.72,4.56,6.72S179.55,355.5,179.55,351.39Z"/><path class="cls-39" d="M188.17,341.21h7.39c4.36,0,7.92,1.52,7.92,6.4,0,4.71-3.56,6.74-7.92,6.74h-2.75v7.39h-4.64Zm7,9.46c2.44,0,3.76-1,3.76-3.06s-1.32-2.71-3.76-2.71h-2.37v5.77Zm-.47,2.46,3.21-3,6.55,11.58h-5.19Z"/><path class="cls-39" d="M213.77,341.21h5.8c6.27,0,10.31,3.12,10.31,10.18s-4,10.35-10,10.35h-6.06Zm5.52,16.8c3.48,0,5.83-1.71,5.83-6.62s-2.35-6.44-5.83-6.44h-.88V358Z"/><path class="cls-39" d="M233.76,341.21h12.87v3.9H238.4v4.12h7v3.89h-7v4.73h8.54v3.89H233.76Z"/><path class="cls-39" d="M250.05,351.6c0-6.81,4.5-10.76,9.69-10.76a8.67,8.67,0,0,1,6.17,2.66l-2.45,3a5.15,5.15,0,0,0-3.62-1.64c-2.81,0-5,2.49-5,6.6s2,6.67,5,6.67a5.4,5.4,0,0,0,4-1.92l2.45,2.92a8.45,8.45,0,0,1-6.63,3C254.39,362.12,250.05,358.51,250.05,351.6Z"/><path class="cls-39" d="M267.21,351.39c0-6.71,3.79-10.55,9.32-10.55s9.32,3.87,9.32,10.55-3.78,10.73-9.32,10.73S267.21,358.1,267.21,351.39Zm13.89,0c0-4.12-1.77-6.55-4.57-6.55s-4.56,2.43-4.56,6.55,1.76,6.72,4.56,6.72S281.1,355.5,281.1,351.39Z"/><path class="cls-39" d="M289.72,341.21h7.39c4.35,0,7.92,1.52,7.92,6.4,0,4.71-3.57,6.74-7.92,6.74h-2.75v7.39h-4.64Zm7,9.46c2.44,0,3.75-1,3.75-3.06s-1.31-2.71-3.75-2.71h-2.37v5.77Zm-.47,2.46,3.21-3L306,361.74h-5.19Z"/><path class="cls-39" d="M312.59,341.21h5.55l6.45,20.53h-4.91L317,351.35c-.57-2.06-1.12-4.48-1.67-6.62h-.12c-.5,2.16-1.05,4.56-1.62,6.62l-2.69,10.39h-4.75Zm-2.2,12h9.88v3.6h-9.88Z"/><path class="cls-39" d="M328.53,345.11h-5.65v-3.9h15.94v3.9h-5.65v16.63h-4.64Z"/><path class="cls-39" d="M342,341.21h4.64v20.53H342Z"/><path class="cls-39" d="M350.53,351.39c0-6.71,3.78-10.55,9.32-10.55s9.32,3.87,9.32,10.55-3.78,10.73-9.32,10.73S350.53,358.1,350.53,351.39Zm13.89,0c0-4.12-1.77-6.55-4.57-6.55s-4.57,2.43-4.57,6.55,1.77,6.72,4.57,6.72S364.42,355.5,364.42,351.39Z"/><path class="cls-39" d="M373,341.21h4.76l5.36,10.21,2,4.51h.12c-.22-2.17-.59-5-.59-7.46v-7.26h4.42v20.53h-4.75L379,351.51,377,347h-.13c.22,2.27.6,5,.6,7.44v7.28H373Z"/><path class="cls-39" d="M400.27,341.21h4.64v16.64H413v3.89H400.27Z"/><path class="cls-39" d="M416.58,341.21h4.64v16.64h8.11v3.89H416.58Z"/><path class="cls-39" d="M430.79,351.6c0-6.81,4.5-10.76,9.69-10.76a8.67,8.67,0,0,1,6.17,2.66l-2.44,3a5.17,5.17,0,0,0-3.63-1.64c-2.81,0-5,2.49-5,6.6s2,6.67,5,6.67a5.4,5.4,0,0,0,4-1.92l2.45,2.92a8.45,8.45,0,0,1-6.63,3C435.14,362.12,430.79,358.51,430.79,351.6Z"/></svg>